<svg xmlns="http://www.w3.org/2000/svg" viewBox="0 0 334.5 94.67"><defs><style>.cls-1{fill:none;stroke:#00aeef;stroke-miterlimit:10;stroke-width:1.5px;}.cls-2{fill:#00aeef;}.cls-3{fill:#d6d6d6;}</style></defs><title>jacketing-logo</title><g id="Layer_1" data-name="Layer 1"><circle class="cls-1" cx="11.53" cy="58.5" r="3.34"/><circle class="cls-1" cx="26.38" cy="26.36" r="3.34"/><circle class="cls-1" cx="55.36" cy="26.36" r="3.34"/><circle class="cls-1" cx="38.89" cy="75.29" r="3.34"/><circle class="cls-1" cx="71.54" cy="52.69" r="3.34"/><line class="cls-1" x1="12.83" y1="55.42" x2="24.16" y2="28.85"/><line class="cls-1" x1="29.73" y1="26.36" x2="52.01" y2="26.36"/><line class="cls-1" x1="57.95" y1="28.48" x2="69.7" y2="49.34"/><line class="cls-1" x1="54.06" y1="29.44" x2="39.87" y2="72.33"/><path class="cls-2" d="M88.17,54.72,90,51.62a3.79,3.79,0,0,0,2.75,1.06A2.61,2.61,0,0,0,95,51.73a5.11,5.11,0,0,0,.7-3V36.83H99.6V49.51a7.63,7.63,0,0,1-1.68,5,6.21,6.21,0,0,1-5,1.94A7.37,7.37,0,0,1,90.29,56a6.18,6.18,0,0,1-1.65-.83Q88.17,54.82,88.17,54.72Z"/><path class="cls-2" d="M111.9,36.83,118.83,56h-3.91l-1.35-3.71h-7.34L105,56h-4.15l6.67-19.2Zm-2.06,4.38-2.59,8h5.18Z"/><path class="cls-2" d="M131.89,51.11l2.21,3a1.92,1.92,0,0,1-.22.26,8.59,8.59,0,0,1-.7.58,7.7,7.7,0,0,1-1.17.74,7.8,7.8,0,0,1-1.68.58,9.35,9.35,0,0,1-2.21.26,8.2,8.2,0,0,1-6.56-2.88,10.64,10.64,0,0,1-2.46-7.17,10.58,10.58,0,0,1,2.46-7.15,8.22,8.22,0,0,1,6.56-2.86,9.71,9.71,0,0,1,2.19.24,7.26,7.26,0,0,1,1.71.59,10.41,10.41,0,0,1,1.17.7,3.23,3.23,0,0,1,.69.61l.22.22-2.21,3a2.89,2.89,0,0,0-.42-.46,5.39,5.39,0,0,0-1.25-.72,4.79,4.79,0,0,0-2-.45,4.45,4.45,0,0,0-3.63,1.78,7,7,0,0,0-1.42,4.53A7.07,7.07,0,0,0,124.54,51a4.44,4.44,0,0,0,3.63,1.79,4.87,4.87,0,0,0,2-.42,4.07,4.07,0,0,0,1.31-.83Z"/><path class="cls-2" d="M140.24,36.83v8.54l7.13-8.54H152v.41l-6.66,7.88L152,55.69V56h-4.23l-4.81-8-2.68,3.17V56h-3.87V36.83Z"/><path class="cls-2" d="M165.52,44.74v3.14h-7.46v4.77h8.86V56H154.19V36.83h12.74v3.39h-8.86v4.51Z"/><path class="cls-2" d="M168.69,40.23V36.83H182.8v3.39h-5.12V56h-3.87V40.23Z"/><path class="cls-2" d="M189.26,36.83V56h-3.87V36.83Z"/><path class="cls-2" d="M208.85,36.83V56H205.9l-9-12.07V56H193.1V36.83h3L205,49V36.83Z"/><path class="cls-2" d="M224.62,48.13v-.06h-4.38V44.9h8.67v2.34a9.65,9.65,0,0,1-2.26,6.7,7.75,7.75,0,0,1-6.06,2.51,8,8,0,0,1-6.48-2.86,10.71,10.71,0,0,1-2.42-7.15,10.62,10.62,0,0,1,2.45-7.15,8.17,8.17,0,0,1,6.54-2.86,10.4,10.4,0,0,1,2.35.26,8.32,8.32,0,0,1,1.81.61,10.28,10.28,0,0,1,1.22.7,4.13,4.13,0,0,1,.74.61l.22.26-2.3,3a5.09,5.09,0,0,0-.48-.48,5.92,5.92,0,0,0-1.38-.75,5.51,5.51,0,0,0-2.24-.46,4.31,4.31,0,0,0-3.54,1.78,7.12,7.12,0,0,0-1.39,4.53A7.24,7.24,0,0,0,217.07,51a4.25,4.25,0,0,0,3.52,1.79,3.64,3.64,0,0,0,3-1.28A5.11,5.11,0,0,0,224.62,48.13Z"/><path class="cls-3" d="M236.69,54.21l1.22-1.7q.19.19.58.51a7.15,7.15,0,0,0,1.66.83,7.25,7.25,0,0,0,2.72.51,4.72,4.72,0,0,0,3.14-.88,3,3,0,0,0,1-2.42,2.81,2.81,0,0,0-.9-2.21,10.85,10.85,0,0,0-3.62-1.66,12,12,0,0,1-4.5-2.26,4.44,4.44,0,0,1-1.3-3.38,4.65,4.65,0,0,1,1.66-3.76A6.92,6.92,0,0,1,243,36.42a10.64,10.64,0,0,1,3.26.46,5.91,5.91,0,0,1,2,.94l.54.48-1.22,1.86a3.44,3.44,0,0,0-.51-.46A8.13,8.13,0,0,0,243,38.53a4.68,4.68,0,0,0-2.86.8A2.63,2.63,0,0,0,239,41.57a2.38,2.38,0,0,0,.91,2,11.92,11.92,0,0,0,3.6,1.57,10.32,10.32,0,0,1,4.58,2.37A5.14,5.14,0,0,1,249.33,51,5,5,0,0,1,247.65,55a6.84,6.84,0,0,1-4.75,1.52,10.44,10.44,0,0,1-2.29-.24,8.8,8.8,0,0,1-1.76-.56,9.39,9.39,0,0,1-1.2-.66,3.69,3.69,0,0,1-.74-.59Z"/><path class="cls-3" d="M251.09,38.91V36.83h13.73v2.08h-5.76V56h-2.24V38.91Z"/><path class="cls-3" d="M274.73,56.48a6.32,6.32,0,0,1-5.18-2.32A9.46,9.46,0,0,1,267.66,48V36.83h2.24V48a7.78,7.78,0,0,0,1.25,4.62,4.57,4.57,0,0,0,7.18,0A7.86,7.86,0,0,0,279.57,48V36.83h2.24V48a9.52,9.52,0,0,1-1.87,6.16A6.31,6.31,0,0,1,274.73,56.48Z"/><path class="cls-3" d="M298.65,39.44a9.88,9.88,0,0,1,2.42,7,9.88,9.88,0,0,1-2.42,7A8.37,8.37,0,0,1,292.21,56h-6V36.83h6A8.37,8.37,0,0,1,298.65,39.44Zm-6.58-.53h-3.58V54h3.58a6.3,6.3,0,0,0,4.83-2,7.74,7.74,0,0,0,1.89-5.49,7.73,7.73,0,0,0-1.89-5.5A6.33,6.33,0,0,0,292.08,38.91Z"/><path class="cls-3" d="M306.86,36.83V56h-2.24V36.83Z"/><path class="cls-3" d="M319,56.48a7.74,7.74,0,0,1-6.26-2.86,10.8,10.8,0,0,1-2.38-7.15,10.85,10.85,0,0,1,2.38-7.18A7.74,7.74,0,0,1,319,36.42a7.83,7.83,0,0,1,6.32,2.85,10.83,10.83,0,0,1,2.38,7.2,10.8,10.8,0,0,1-2.38,7.15A7.81,7.81,0,0,1,319,56.48Zm0-2.14a5.63,5.63,0,0,0,4.66-2.27,8.82,8.82,0,0,0,1.78-5.6,8.93,8.93,0,0,0-1.78-5.65A5.62,5.62,0,0,0,319,38.53a5.5,5.5,0,0,0-4.59,2.29,9,9,0,0,0-1.74,5.65,8.92,8.92,0,0,0,1.74,5.6A5.51,5.51,0,0,0,319,54.34Z"/></g></svg>